<svg xmlns="http://www.w3.org/2000/svg" xmlns:xlink="http://www.w3.org/1999/xlink" viewBox="0 0 142.11 182.06"><defs><style>.a{fill:none;}.b{clip-path:url(#a);}.c{fill:#f9b80c;}</style><clipPath id="a" transform="translate(-17.03 -1.05)"><rect class="a" x="3.11" y="2.37" width="158.25" height="206.25" transform="translate(-3.18 2.56) rotate(-1.75)"/></clipPath></defs><title>bee-tailed</title><g class="b"><g class="b"><path class="c" d="M110.58,94.71c-1.86-2-3-5.09-3.43-9.11-.47-4.52,0-10.18,1.42-16.83a30.88,30.88,0,0,0,3.19.58,26.3,26.3,0,0,0,10-.61,11.73,11.73,0,0,0,1.53-.49c1.6,4.18,6.26,17.76,2.23,24.87-1.37,2.42-3.61,3.81-6.85,4.25A8.91,8.91,0,0,1,110.58,94.71Zm-8.84-31.3c-4.33-3-4.66-8.52-4.68-9.71A28.74,28.74,0,0,1,101,43.3a39.87,39.87,0,0,0,1.14,6.62,38.89,38.89,0,0,0,3.79,9.42,37.08,37.08,0,0,0,5.37,7.26,30.48,30.48,0,0,1-6.68-1.87C103.54,64.3,102.58,63.86,101.73,63.42ZM95,60.8h0ZM83.62,26.69a20.32,20.32,0,0,1-3.11-9.59,10.1,10.1,0,0,1,.7-4.24c1-2.38,3.06-3.92,6.12-4.59,4.87-1.06,9.82,1.79,14.71,8.46a65.05,65.05,0,0,1,8.22,15.57,22.44,22.44,0,0,0-7.16,4.39,25,25,0,0,0-4.2,4.92C93.74,38,87.6,33.08,83.62,26.69Zm30.44-12.44c1.05-3.87,2.83-6.73,5.29-8.51a11.76,11.76,0,0,1,11.77-.83,7.61,7.61,0,0,1,4.59,5.43c.75,3.56-.69,8.55-4.17,14.44a65,65,0,0,1-5.37,7.69,53.51,53.51,0,0,0-6-1,27.12,27.12,0,0,0-6.69,0C112.62,24.57,112.82,18.77,114.06,14.25Zm23,24.34c0,.38,0,.77.07,1.15a28.14,28.14,0,0,0,1,5.39,10.68,10.68,0,0,0,1.23,2.78,52.46,52.46,0,0,1-4.64,7.53,17.43,17.43,0,0,1-7.38-13.22,20.27,20.27,0,0,1,.7-6.57,92.9,92.9,0,0,1,9,2.86A.39.39,0,0,0,137.06,38.59Zm5.57-4.08a3,3,0,0,1,2.59,1,10.05,10.05,0,0,1,1.23,3.15l.14.5a39.14,39.14,0,0,1,.89,5c0,.08,0,.15,0,.23.07,2.25-1.07,2.83-1.44,3-1,.5-2.49.84-3.48.1a5.92,5.92,0,0,1-1.89-3.16,25.28,25.28,0,0,1-.9-4.87,6.37,6.37,0,0,1,.47-3.76A2.9,2.9,0,0,1,142.63,34.51Zm6.25,35.81a12.54,12.54,0,0,1,1.94,9.4,8.94,8.94,0,0,1-4.18,5.8,9.07,9.07,0,0,1-6.5,1.35c-3.52-.73-6.57-3.33-9.32-7.94a62.86,62.86,0,0,1-5.1-11.81,27.25,27.25,0,0,0,3-1.87,36.23,36.23,0,0,0,6.53-6.15l.09-.1C141.4,62.17,146.08,66.08,148.88,70.32Zm-15.81-12.8A33.72,33.72,0,0,1,127.29,63c-.62.45-1.21.85-1.77,1.19A41.94,41.94,0,0,1,115,43.81a38,38,0,0,1-.74-9.75,35.25,35.25,0,0,1,11.16,1c-.08.29-.16.59-.23.92a23.13,23.13,0,0,0-.57,5.77c0,.15,0,.3,0,.45a19.7,19.7,0,0,0,2.18,8.14A21.62,21.62,0,0,0,133.06,57.52ZM103.53,40s0,0,0,0c.4-.43.81-.84,1.25-1.23A20.58,20.58,0,0,1,110,35.32a16.41,16.41,0,0,1,1.64-.66c0,.65,0,1.48,0,2.47a43.2,43.2,0,0,0,.82,7.09A44.21,44.21,0,0,0,123.1,65.45a11.85,11.85,0,0,1-2,.71h-.07a22.76,22.76,0,0,1-5.67.74,35.34,35.34,0,0,1-10.7-17.56A33.17,33.17,0,0,1,103.53,40ZM119,100a12.87,12.87,0,0,0,5.4-1.9,10.54,10.54,0,0,0,3.41-3.67,17.63,17.63,0,0,0,1.93-8.77,34.42,34.42,0,0,0-.25-3.9,23,23,0,0,0,3.69,4.32,13.9,13.9,0,0,0,6.43,3.37A11.54,11.54,0,0,0,148,87.78a11.57,11.57,0,0,0,5.39-7.48,14,14,0,0,0,0-5.87,16.17,16.17,0,0,0-2.32-5.57,31.55,31.55,0,0,0-6.78-7.23A48.46,48.46,0,0,0,137,56.87a55,55,0,0,0,4.35-7,6.18,6.18,0,0,0,5.93-.1,5.48,5.48,0,0,0,2.89-5.24l4,.45a2.65,2.65,0,1,0,.11-2.66l-4-.45a1.35,1.35,0,0,0-.37,0c-.24-1.44-.58-2.94-.71-3.4L149,38c-.08-.29-.16-.58-.24-.88l3.29-2.83.09,0a2.65,2.65,0,1,0-1.63-2.22l-2.8,2.41c-.11-.18-.22-.36-.35-.53a5.07,5.07,0,0,0-2.21-1.7,6.28,6.28,0,0,0-2.66-.44A5.47,5.47,0,0,0,138,34.4a6.19,6.19,0,0,0-.6,1.39c-1.77-.65-4.8-1.7-8.33-2.62h0a67.24,67.24,0,0,0,4.78-7,40.14,40.14,0,0,0,3.72-8,16.5,16.5,0,0,0,.78-8.4,9.73,9.73,0,0,0-1.94-4.14,11.61,11.61,0,0,0-4.11-3.14,15.28,15.28,0,0,0-7-1.45,13.48,13.48,0,0,0-7.52,2.53,14.7,14.7,0,0,0-3.69,3.95,21.34,21.34,0,0,0-2.6,6,41,41,0,0,0-1.17,11.94v.11q-.47-1-1-2a62.2,62.2,0,0,0-5.17-8.46A29.61,29.61,0,0,0,97,7.92,13,13,0,0,0,86.77,5.67,12.27,12.27,0,0,0,81.69,8a9.69,9.69,0,0,0-2.92,3.85,12.84,12.84,0,0,0-.91,5.39,18,18,0,0,0,.33,2.89,24.11,24.11,0,0,0,3.18,8,44.08,44.08,0,0,0,7.77,9.15,81.26,81.26,0,0,0,8.43,6.67c-.18.34-.35.69-.52,1a36.9,36.9,0,0,0-3.24,13.4l-9.09,7.91,11.57-3a36.2,36.2,0,0,0,7.22,3.93c.83.34,1.66.64,2.5.91a64.53,64.53,0,0,0-1.67,15.23c0,.9.09,1.76.17,2.59.48,4.59,1.86,8.17,4.11,10.62a10.91,10.91,0,0,0,4.9,3.11A12.44,12.44,0,0,0,119,100Z" transform="translate(-17.03 -1.05)"/><path class="c" d="M77.2,70.49c1.64-.62,3.31-1.18,4.95-1.68a1.33,1.33,0,1,0-.78-2.54c-1.7.52-3.41,1.1-5.11,1.74a1.32,1.32,0,0,0-.86,1.28,1.35,1.35,0,0,0,.08.43A1.33,1.33,0,0,0,77.2,70.49Z" transform="translate(-17.03 -1.05)"/><path class="c" d="M72.89,144a1.32,1.32,0,0,0,.36,1.84,48,48,0,0,1,4.13,3.1,1.33,1.33,0,1,0,1.71-2,50.58,50.58,0,0,0-4.36-3.28A1.34,1.34,0,0,0,72.89,144Z" transform="translate(-17.03 -1.05)"/><path class="c" d="M27.24,142.65a29.74,29.74,0,0,1-.29-3.35V139c0-.48,0-1,0-1.46a1.33,1.33,0,1,0-2.65-.05c0,.53,0,1.06,0,1.57v.29a32.07,32.07,0,0,0,.32,3.65,1.33,1.33,0,1,0,2.63-.38Z" transform="translate(-17.03 -1.05)"/><path class="c" d="M87.37,173.79a10.15,10.15,0,0,1-2.94,3.61,1.33,1.33,0,0,0,1.63,2.1,12.81,12.81,0,0,0,3.7-4.54,1.33,1.33,0,1,0-2.39-1.16Z" transform="translate(-17.03 -1.05)"/><path class="c" d="M87.82,162.75a1.39,1.39,0,0,0,.05.34,17,17,0,0,1,.72,4.33c0,.15,0,.31,0,.46v.06a1.33,1.33,0,0,0,2.65,0v-.07c0-.18,0-.36,0-.54a19.58,19.58,0,0,0-.83-5,1.33,1.33,0,0,0-2.6.42Z" transform="translate(-17.03 -1.05)"/><path class="c" d="M81.7,152.6a1.32,1.32,0,0,0,.35.85c.63.69,1.23,1.39,1.78,2.09s1,1.26,1.38,1.9A1.33,1.33,0,1,0,87.43,156c-.47-.72-1-1.42-1.52-2.1s-1.23-1.49-1.9-2.22a1.33,1.33,0,0,0-2.31.93Z" transform="translate(-17.03 -1.05)"/><path class="c" d="M62.35,138.44A1.33,1.33,0,0,0,63,140.2c1.58.72,3.15,1.5,4.66,2.32a1.33,1.33,0,0,0,1.27-2.33c-1.57-.86-3.2-1.66-4.84-2.41A1.33,1.33,0,0,0,62.35,138.44Z" transform="translate(-17.03 -1.05)"/><path class="c" d="M60.86,78.67a1.33,1.33,0,0,0-1.44-2.23c-1.53,1-3,2-4.44,3.07a1.32,1.32,0,0,0-.54,1.11,1.31,1.31,0,0,0,.26.75,1.33,1.33,0,0,0,1.86.27C57.94,80.62,59.39,79.62,60.86,78.67Z" transform="translate(-17.03 -1.05)"/><path class="c" d="M71.17,73a1.33,1.33,0,0,0-1.12-2.41c-1.63.76-3.25,1.57-4.82,2.41a1.33,1.33,0,0,0-.7,1.21,1.31,1.31,0,0,0,.16.59,1.33,1.33,0,0,0,1.8.54C68,74.54,69.59,73.75,71.17,73Z" transform="translate(-17.03 -1.05)"/><path class="c" d="M51.52,85.76a1.33,1.33,0,0,0-1.77-2c-1.37,1.23-2.67,2.51-3.88,3.79a1.33,1.33,0,1,0,1.94,1.82C49,88.16,50.21,86.94,51.52,85.76Z" transform="translate(-17.03 -1.05)"/><path class="c" d="M51.07,134.55a1.35,1.35,0,0,0,0,.4,1.33,1.33,0,0,0,1,1.24c1.69.48,3.37,1,5,1.58a1.33,1.33,0,1,0,.88-2.5c-1.66-.59-3.39-1.14-5.14-1.63A1.33,1.33,0,0,0,51.07,134.55Z" transform="translate(-17.03 -1.05)"/><path class="c" d="M40.58,98.62c1-1.45,2-2.88,3-4.25a1.33,1.33,0,1,0-2.11-1.62c-1.08,1.41-2.14,2.89-3.14,4.39a1.33,1.33,0,0,0,2.21,1.48Z" transform="translate(-17.03 -1.05)"/><path class="c" d="M39.28,132.73s0,.08,0,.12a1.33,1.33,0,0,0,1.24,1.28,48.33,48.33,0,0,1,5.13.6,1.33,1.33,0,1,0,.45-2.62,50.26,50.26,0,0,0-5.41-.64A1.32,1.32,0,0,0,39.28,132.73Z" transform="translate(-17.03 -1.05)"/><path class="c" d="M46.77,172.3a1.33,1.33,0,0,0-.33-1.85c-1.17-.81-2.33-1.67-3.45-2.56l-.7-.57a1.33,1.33,0,0,0-2.17,1.06,1.31,1.31,0,0,0,.48,1l.74.6c1.16.92,2.37,1.81,3.58,2.66A1.32,1.32,0,0,0,46.77,172.3Z" transform="translate(-17.03 -1.05)"/><path class="c" d="M80.55,180.87a1.33,1.33,0,0,0-1.6-1,22.48,22.48,0,0,1-4.44.56H74a1.33,1.33,0,0,0-1.31,1.34v0A1.32,1.32,0,0,0,74,183.11h.59a25.18,25.18,0,0,0,5-.63A1.33,1.33,0,0,0,80.55,180.87Z" transform="translate(-17.03 -1.05)"/><path class="c" d="M68.7,181.39a1.33,1.33,0,0,0-1-1.56,47.74,47.74,0,0,1-5-1.28,1.33,1.33,0,0,0-1.67.87,1.31,1.31,0,0,0-.06.44,1.33,1.33,0,0,0,.93,1.22,50.5,50.5,0,0,0,5.28,1.35A1.33,1.33,0,0,0,68.7,181.39Z" transform="translate(-17.03 -1.05)"/><path class="c" d="M50.66,176.22c1.6.89,3.22,1.71,4.84,2.44a1.33,1.33,0,1,0,1.09-2.42c-1.55-.7-3.11-1.48-4.64-2.34a1.33,1.33,0,1,0-1.29,2.32Z" transform="translate(-17.03 -1.05)"/><path class="c" d="M34.79,108.84c.75-1.58,1.56-3.14,2.39-4.65a1.33,1.33,0,1,0-2.32-1.29c-.87,1.56-1.7,3.17-2.47,4.79a1.33,1.33,0,1,0,2.4,1.14Z" transform="translate(-17.03 -1.05)"/><path class="c" d="M37.51,164.78a1.33,1.33,0,0,0,.07-1.88,46.44,46.44,0,0,1-3.31-4,1.33,1.33,0,1,0-2.13,1.58,49.05,49.05,0,0,0,3.5,4.19A1.32,1.32,0,0,0,37.51,164.78Z" transform="translate(-17.03 -1.05)"/><path class="c" d="M23.4,137.8A1.33,1.33,0,1,0,22,135.52a39.55,39.55,0,0,0-4.51,3.13,1.33,1.33,0,0,0,1.66,2.07A37.84,37.84,0,0,1,23.4,137.8Z" transform="translate(-17.03 -1.05)"/><path class="c" d="M27.61,131.18v0c.31-1.7.67-3.41,1.08-5.08a1.33,1.33,0,0,0-2.58-.62c-.42,1.72-.79,3.48-1.11,5.23v0a1.35,1.35,0,0,0,0,.27,1.33,1.33,0,0,0,2.63.19Z" transform="translate(-17.03 -1.05)"/><path class="c" d="M30.46,119.77c.53-1.66,1.12-3.32,1.74-4.93a1.33,1.33,0,0,0-2.48-1c-.64,1.66-1.25,3.37-1.79,5.08a1.35,1.35,0,0,0-.06.45,1.33,1.33,0,0,0,2.59.36Z" transform="translate(-17.03 -1.05)"/><path class="c" d="M29.16,135.25a28.81,28.81,0,0,1,5-1,1.33,1.33,0,0,0-.29-2.64,31.39,31.39,0,0,0-5.43,1.08,1.33,1.33,0,0,0-.95,1.31,1.27,1.27,0,0,0,.05.34A1.32,1.32,0,0,0,29.16,135.25Z" transform="translate(-17.03 -1.05)"/><path class="c" d="M30.28,155.3a1.33,1.33,0,0,0,.56-1.79,36.32,36.32,0,0,1-2.06-4.69,1.33,1.33,0,0,0-2.58.49,1.39,1.39,0,0,0,.08.4,39,39,0,0,0,2.21,5A1.33,1.33,0,0,0,30.28,155.3Z" transform="translate(-17.03 -1.05)"/></g></g></svg>