<svg xmlns="http://www.w3.org/2000/svg" xmlns:xlink="http://www.w3.org/1999/xlink" viewBox="0 0 190.4 136.5"><defs><style>.a{fill:none;}.b{opacity:0.33;isolation:isolate;}.c{clip-path:url(#a);}.d{clip-path:url(#b);}.e{fill:#f9b80c;}</style><clipPath id="a" transform="translate(0 -0.01)"><rect class="a" x="10.82" width="180.48" height="136.56"/></clipPath><clipPath id="b" transform="translate(0 -0.01)"><rect class="a" x="10.58" y="0.01" width="179.81" height="136.5"/></clipPath></defs><title>honeycomb</title><g class="b"><g class="c"><g class="d"><path class="e" d="M189.71,58.77l-14.38-8.31h0l-.68-.39-.68.39-9.9,5.72-3.87,2.23-13.76-8h0l-.68-.39-.68.39-9.74,5.62-4,2.33-13.15-7.59V34.14l-.68-.39h0L103.1,25.43h0l-.68-.39-.68.39h0L88,33.39l-6.11-3.53-7-4.06V9.1l-.68-.39L59.76.4h0l0,0L59.09,0,58.4.4l-3.54,2L43.34,9.1V25.79L30.19,33.39l-13.76-8h0L15.74,25l-.68.39h0L.68,33.74h0l0,0L0,34.13V52.32l.68.39h0l13.77,8V77.35l.68.39,14.38,8.31h0l.68.39.68-.39h0l13.77-8,10.1,5.83,3,1.76v16.69l.68.39h0l14.38,8.31h0l.68.39.68-.39.13-.07L88,103.13l13.15,7.59v16.69l.68.39,5.7,3.29,8.72,5,.65.37.68-.39,14.38-8.31.68-.39V110.73l13.15-7.59,13.76,8h0l.68.39.68-.39,2-1.18,12.38-7.15.64-.38V85.7l13.77-8,.68-.39V59.17l-.68-.39M31.49,35.64l10.31-6L44.64,28l13.15,7.59V50.82L46.34,57.43l-1.7,1L31.49,50.82ZM130,125.92l-13.15,7.59-10.38-6-2.77-1.6V110.73l13.15-7.59L130,110.73ZM17,75.85V60.67l8.58-5,4.56-2.64,13.15,7.59V75.85L30.19,83.45l-5.55-3.21Zm98.52-40.22V50.82l-11.34,6.55-1.8,1L89.27,50.82V35.64L102.42,28,109.24,32Zm21.55,22.43,8.64-5,13.15,7.59V75.85l-13.15,7.59L135.12,77.3l-2.51-1.45V60.67Zm33.19-2.48,4.35-2.51,3.79,2.19,9.36,5.41V75.85l-13.15,7.59L164,77.3l-2.51-1.45V60.67Zm-67.88,52.89-13.15-7.59V85.7l13.15-7.59,10,5.79,3.12,1.8v15.19l-1.44.83ZM74.83,60.67,79,58.27l9-5.19,13.15,7.59V75.85l-4.68,2.71L88,83.45,74.83,75.85ZM130,75.85l-13.15,7.59-13.15-7.59V60.67l13.15-7.59L130,60.67ZM73.53,28l13.15,7.59V50.82l-12.14,7-1,.58L60.38,50.82V35.64l9.7-5.6Zm-14.45,25,13.15,7.59V75.85L59.08,83.45,45.94,75.85V60.67l4.15-2.4Zm14.45,55.4-13.15-7.59V85.7L73.53,78.1,86.68,85.7v15.19l-6.17,3.56ZM118.17,85.7l13.15-7.59,13.15,7.59v15.19l-13.15,7.59-13.15-7.59Zm55.19,15.19-13.15,7.59-13.15-7.59V85.7L160.2,78.1l13.15,7.59ZM59.08,3l9.29,5.36,3.86,2.23V25.79l-1.13.65-12,6.94L45.94,25.79V10.61ZM28.89,35.64V50.82L15.74,58.42,11.38,55.9,2.6,50.82V35.64L15.74,28,19,29.93Z" transform="translate(0 -0.01)"/></g></g></g></svg>