<svg xmlns="http://www.w3.org/2000/svg" xmlns:xlink="http://www.w3.org/1999/xlink" viewBox="0 0 52.02 90.37"><defs><style>.a{fill:none;}.b{clip-path:url(#a);}.c{fill:#58271b;}</style><clipPath id="a" transform="translate(0 -0.19)"><rect class="a" width="107.51" height="129"/></clipPath></defs><title>steak-decor</title><g class="b"><path class="c" d="M52,7a6.84,6.84,0,1,0-6.84,6.84A6.85,6.85,0,0,0,52,7" transform="translate(0 -0.19)"/><path class="c" d="M6.84.19A6.84,6.84,0,1,0,13.67,7,6.85,6.85,0,0,0,6.84.19" transform="translate(0 -0.19)"/><path class="c" d="M52,45.37a6.84,6.84,0,1,0-6.84,6.84A6.85,6.85,0,0,0,52,45.37" transform="translate(0 -0.19)"/><path class="c" d="M6.84,38.54a6.84,6.84,0,1,0,6.84,6.84,6.85,6.85,0,0,0-6.84-6.84" transform="translate(0 -0.19)"/><path class="c" d="M52,83.72a6.84,6.84,0,1,0-6.84,6.84A6.84,6.84,0,0,0,52,83.72" transform="translate(0 -0.19)"/><path class="c" d="M6.84,76.88a6.84,6.84,0,1,0,6.84,6.84,6.84,6.84,0,0,0-6.84-6.84" transform="translate(0 -0.19)"/></g></svg>