<svg width="159" height="63" viewBox="0 0 159 63" fill="none" xmlns="http://www.w3.org/2000/svg">
<path d="M57.768 7.944C58.9627 8.11466 59.7733 8.47733 60.2 9.032C60.6693 9.58666 60.904 10.312 60.904 11.208C60.904 14.152 59.3253 15.5173 56.168 15.304L53.928 15.112C51.4107 14.8987 48.8933 14.728 46.376 14.6C43.9013 14.472 41.2987 14.408 38.568 14.408H35.688C35.176 20.7227 34.6427 26.4827 34.088 31.688L45.096 31.496C46.6747 31.496 47.72 31.7733 48.232 32.328C48.7867 32.8827 49.064 33.6293 49.064 34.568C49.064 36.0187 48.6373 37.1707 47.784 38.024C46.9307 38.8347 45.7147 39.24 44.136 39.24H33.192L32.808 41.992C31.912 49.032 29.992 54.0453 27.048 57.032C24.1467 60.0187 20.136 61.512 15.016 61.512C12.1147 61.512 9.448 60.8933 7.016 59.656C4.584 58.376 2.792 56.84 1.64 55.048C1.17067 54.3227 0.936 53.448 0.936 52.424C0.936 51.4 1.17067 50.504 1.64 49.736C2.152 48.968 2.77067 48.584 3.496 48.584C4.008 48.584 4.49867 48.7547 4.968 49.096C5.48 49.4373 6.12 50.0987 6.888 51.08C8.936 53.768 11.4747 55.112 14.504 55.112C16.936 55.112 18.9627 54.1307 20.584 52.168C22.248 50.1627 23.3147 47.0267 23.784 42.76L24.168 39.24H21.096C20.1147 39.24 19.2613 38.9627 18.536 38.408C17.8533 37.8533 17.512 37.064 17.512 36.04C17.512 34.7173 17.8533 33.7147 18.536 33.032C19.2187 32.3067 20.2213 31.944 21.544 31.944C22.7387 31.944 23.912 31.9227 25.064 31.88C25.576 27.1867 26.1307 21.4907 26.728 14.792C22.12 15.2187 18.8773 15.9653 17 17.032C15.1227 18.0987 14.184 19.6773 14.184 21.768C14.184 23.2187 14.6107 24.6053 15.464 25.928C15.72 26.312 15.848 26.696 15.848 27.08C15.848 27.848 15.4213 28.5307 14.568 29.128C13.7147 29.6827 12.7547 29.96 11.688 29.96C10.536 29.96 9.55467 29.6187 8.744 28.936C8.232 28.5093 7.74133 27.6347 7.272 26.312C6.80267 24.9893 6.568 23.5173 6.568 21.896C6.568 16.6053 9.27733 12.7653 14.696 10.376C20.1573 7.98666 28.1147 6.792 38.568 6.792C45.8213 6.792 52.2213 7.176 57.768 7.944ZM54.1785 61.32C52.5572 61.32 51.4052 60.4667 50.7225 58.76C50.0825 57.0533 49.7625 54.3227 49.7625 50.568C49.7625 45.0213 50.5518 39.752 52.1305 34.76C52.5145 33.5227 53.1332 32.6267 53.9865 32.072C54.8825 31.4747 56.1198 31.176 57.6985 31.176C58.5518 31.176 59.1492 31.2827 59.4905 31.496C59.8318 31.7093 60.0025 32.1147 60.0025 32.712C60.0025 33.3947 59.6825 34.9307 59.0425 37.32C58.6158 39.0267 58.2745 40.52 58.0185 41.8C57.7625 43.08 57.5492 44.6587 57.3785 46.536C58.7865 42.8667 60.3652 39.88 62.1145 37.576C63.8638 35.272 65.5705 33.6293 67.2345 32.648C68.9412 31.6667 70.4985 31.176 71.9065 31.176C74.6798 31.176 76.0665 32.5627 76.0665 35.336C76.0665 35.8907 75.8745 37.2347 75.4905 39.368C75.1492 41.0747 74.9785 42.1413 74.9785 42.568C74.9785 44.0613 75.5118 44.808 76.5785 44.808C77.7732 44.808 79.3092 43.8693 81.1865 41.992C81.7412 41.4373 82.3172 41.16 82.9145 41.16C83.4692 41.16 83.8958 41.416 84.1945 41.928C84.5358 42.3973 84.7065 43.0373 84.7065 43.848C84.7065 45.4267 84.2798 46.664 83.4265 47.56C82.2318 48.7973 80.8238 49.864 79.2025 50.76C77.6238 51.6133 75.9385 52.04 74.1465 52.04C71.8852 52.04 70.1572 51.464 68.9625 50.312C67.8105 49.16 67.2345 47.6027 67.2345 45.64C67.2345 45 67.2985 44.36 67.4265 43.72C67.5118 42.8667 67.5545 42.2907 67.5545 41.992C67.5545 41.3093 67.3198 40.968 66.8505 40.968C66.2105 40.968 65.3572 41.6933 64.2905 43.144C63.2665 44.552 62.2425 46.4293 61.2185 48.776C60.1945 51.1227 59.3625 53.5973 58.7225 56.2C58.2532 58.2053 57.6985 59.5707 57.0585 60.296C56.4612 60.9787 55.5012 61.32 54.1785 61.32ZM107.304 46.728C107.858 46.728 108.285 46.984 108.583 47.496C108.925 48.008 109.096 48.712 109.096 49.608C109.096 51.3147 108.69 52.6373 107.88 53.576C106.301 55.496 104.061 57.2667 101.16 58.888C98.3008 60.5093 95.2288 61.32 91.9435 61.32C87.4635 61.32 83.9862 60.104 81.5115 57.672C79.0368 55.24 77.7995 51.912 77.7995 47.688C77.7995 44.744 78.4182 42.0133 79.6555 39.496C80.8928 36.936 82.5995 34.9093 84.7755 33.416C86.9942 31.9227 89.4902 31.176 92.2635 31.176C94.7382 31.176 96.7222 31.9227 98.2155 33.416C99.7088 34.8667 100.456 36.8507 100.456 39.368C100.456 42.312 99.3888 44.8507 97.2555 46.984C95.1648 49.0747 91.6022 50.7387 86.5675 51.976C87.6342 53.9387 89.6608 54.92 92.6475 54.92C94.5675 54.92 96.7435 54.2587 99.1755 52.936C101.65 51.5707 103.784 49.8 105.576 47.624C106.088 47.0267 106.664 46.728 107.304 46.728ZM91.1755 37.448C89.5968 37.448 88.2528 38.3653 87.1435 40.2C86.0768 42.0347 85.5435 44.2533 85.5435 46.856V46.984C88.0608 46.3867 90.0448 45.4907 91.4955 44.296C92.9462 43.1013 93.6715 41.7147 93.6715 40.136C93.6715 39.3253 93.4368 38.6853 92.9675 38.216C92.5408 37.704 91.9435 37.448 91.1755 37.448ZM115.789 62.728C113.57 62.728 111.863 62.216 110.669 61.192C109.517 60.168 108.941 59.016 108.941 57.736C108.941 56.6267 109.346 55.6667 110.157 54.856C110.967 54.0453 112.162 53.64 113.741 53.64C114.295 53.64 114.935 53.704 115.661 53.832C116.429 53.9173 117.005 53.9813 117.389 54.024C117.346 52.9147 117.09 51.8693 116.621 50.888C116.194 49.9067 115.639 48.968 114.957 48.072C114.274 47.1333 113.634 46.3227 113.037 45.64C111.714 48.1573 110.391 50.248 109.069 51.912C107.789 53.576 106.381 55.1547 104.845 56.648C104.077 57.416 103.266 57.8 102.413 57.8C101.73 57.8 101.175 57.5653 100.748 57.096C100.322 56.584 100.108 55.9653 100.108 55.24C100.108 54.3867 100.407 53.5973 101.005 52.872L101.837 51.848C104.183 48.9467 105.954 46.5573 107.149 44.68C107.874 43.4427 108.727 41.8 109.709 39.752C110.69 37.6613 111.65 35.5067 112.589 33.288C113.399 31.4107 115.085 30.472 117.645 30.472C118.839 30.472 119.671 30.5787 120.141 30.792C120.61 31.0053 120.845 31.3467 120.845 31.816C120.845 32.072 120.759 32.4773 120.589 33.032C120.418 33.5867 120.183 34.1413 119.885 34.696C119.117 36.232 118.733 37.5333 118.733 38.6C118.733 39.24 118.946 39.944 119.373 40.712C119.842 41.48 120.546 42.44 121.485 43.592C122.85 45.384 123.874 46.92 124.557 48.2C125.282 49.4373 125.645 50.8027 125.645 52.296C125.645 52.7227 125.602 53.32 125.517 54.088C127.607 53.2773 130.061 51.1227 132.877 47.624C133.389 47.0267 133.965 46.728 134.604 46.728C135.159 46.728 135.586 46.984 135.885 47.496C136.226 48.008 136.397 48.712 136.397 49.608C136.397 51.2293 135.991 52.552 135.181 53.576C133.047 56.2213 130.999 58.0347 129.037 59.016C127.117 59.9547 124.727 60.4667 121.869 60.552C120.162 62.0027 118.135 62.728 115.789 62.728ZM153.853 31.176C155.218 31.176 156.242 31.5387 156.925 32.264C157.65 32.9467 158.013 33.9707 158.013 35.336C158.013 36.4453 157.778 38.536 157.309 41.608C156.882 44.2107 156.541 46.6853 156.285 49.032C156.029 51.336 155.901 53.9173 155.901 56.776C155.901 58.3973 155.56 59.5707 154.877 60.296C154.237 60.9787 153.17 61.32 151.677 61.32C150.269 61.32 149.245 60.9573 148.605 60.232C147.965 59.5067 147.645 58.4187 147.645 56.968C147.645 55.2613 147.944 52.4453 148.541 48.52C149.053 45.1067 149.309 42.9307 149.309 41.992C149.309 41.3093 149.074 40.968 148.605 40.968C148.05 40.968 147.261 41.6933 146.237 43.144C145.213 44.552 144.189 46.4293 143.165 48.776C142.141 51.1227 141.309 53.5973 140.669 56.2C140.2 58.2053 139.645 59.5707 139.005 60.296C138.408 60.9787 137.448 61.32 136.125 61.32C134.802 61.32 133.821 60.8507 133.181 59.912C132.584 58.9307 132.178 57.4373 131.965 55.432C131.752 53.4267 131.645 50.4827 131.645 46.6C131.645 40.0293 132.306 33.1813 133.629 26.056C134.994 18.9307 136.978 12.9573 139.581 8.136C142.226 3.272 145.384 0.839996 149.053 0.839996C151.016 0.839996 152.594 1.69333 153.789 3.4C155.026 5.064 155.645 7.24 155.645 9.928C155.645 14.2373 154.386 18.7173 151.869 23.368C149.352 27.976 145.256 33.3733 139.581 39.56C139.453 41.7787 139.389 44.0613 139.389 46.408C140.797 42.7813 142.354 39.8373 144.061 37.576C145.81 35.272 147.517 33.6293 149.181 32.648C150.888 31.6667 152.445 31.176 153.853 31.176ZM147.709 7.176C146.941 7.176 146.088 8.28533 145.149 10.504C144.21 12.68 143.293 15.6453 142.397 19.4C141.544 23.112 140.84 27.1653 140.285 31.56C142.93 28.4453 145.106 25.0533 146.813 21.384C148.562 17.7147 149.437 14.3867 149.437 11.4C149.437 10.0347 149.288 8.98933 148.989 8.264C148.69 7.53866 148.264 7.176 147.709 7.176Z" fill="white"/>
</svg>
