<svg xmlns="http://www.w3.org/2000/svg" xmlns:xlink="http://www.w3.org/1999/xlink" viewBox="0 0 134.48 110.03"><defs><style>.a{fill:none;}.b{clip-path:url(#a);}.c{fill:#fff;}</style><clipPath id="a" transform="translate(0 -0.04)"><rect class="a" width="39" height="110.25"/></clipPath></defs><title>fruits deco</title><g class="b"><path class="c" d="M8.62,3.65a3.55,3.55,0,1,0,1,2.51,3.54,3.54,0,0,0-1-2.51Zm0,24.45a3.55,3.55,0,1,0,1,2.51A3.54,3.54,0,0,0,8.62,28.1ZM6.11,24.49a6.09,6.09,0,0,1,4.32,1.79h0a6.1,6.1,0,0,1,0,8.64h0a6.1,6.1,0,0,1-8.64,0h0a6.1,6.1,0,0,1,0-8.64h0A6.09,6.09,0,0,1,6.11,24.49ZM8.62,52.55a3.55,3.55,0,1,0,1,2.51A3.53,3.53,0,0,0,8.62,52.55ZM6.11,48.94a6.09,6.09,0,0,1,4.32,1.79h0a6.1,6.1,0,0,1,0,8.64h0a6.1,6.1,0,0,1-8.64,0h0a6.1,6.1,0,0,1,0-8.64h0A6.09,6.09,0,0,1,6.11,48.94ZM8.62,77a3.55,3.55,0,1,0,1,2.51A3.53,3.53,0,0,0,8.62,77ZM6.11,73.39a6.09,6.09,0,0,1,4.32,1.79h0a6.1,6.1,0,0,1,0,8.64h0a6.1,6.1,0,0,1-8.64,0h0a6.1,6.1,0,0,1,0-8.64h0A6.09,6.09,0,0,1,6.11,73.39Zm2.51,28.06a3.55,3.55,0,1,0,1,2.51A3.53,3.53,0,0,0,8.62,101.45ZM6.11,97.84a6.09,6.09,0,0,1,4.32,1.79h0a6.1,6.1,0,0,1,0,8.64h0a6.1,6.1,0,0,1-8.64,0h0a6.1,6.1,0,0,1,0-8.64h0A6.09,6.09,0,0,1,6.11,97.84Zm27-94.2a3.55,3.55,0,1,0,1,2.51A3.54,3.54,0,0,0,33.07,3.65ZM30.56,0a6.09,6.09,0,0,1,4.32,1.79h0a6.1,6.1,0,0,1,0,8.64h0a6.1,6.1,0,0,1-8.64,0h0a6.1,6.1,0,0,1,0-8.64h0A6.09,6.09,0,0,1,30.56,0ZM33.07,28.1a3.55,3.55,0,1,0,1,2.51A3.54,3.54,0,0,0,33.07,28.1Zm-2.51-3.61a6.09,6.09,0,0,1,4.32,1.79h0a6.1,6.1,0,0,1,0,8.64h0a6.1,6.1,0,0,1-8.64,0h0a6.1,6.1,0,0,1,0-8.64h0A6.09,6.09,0,0,1,30.56,24.49Zm2.51,28.06a3.55,3.55,0,1,0,1,2.51A3.53,3.53,0,0,0,33.07,52.55Zm-2.51-3.61a6.09,6.09,0,0,1,4.32,1.79h0a6.1,6.1,0,0,1,0,8.64h0a6.1,6.1,0,0,1-8.64,0h0a6.1,6.1,0,0,1,0-8.64h0A6.09,6.09,0,0,1,30.56,48.94ZM33.07,77a3.55,3.55,0,1,0,1,2.51A3.53,3.53,0,0,0,33.07,77Zm-2.51-3.61a6.09,6.09,0,0,1,4.32,1.79h0a6.1,6.1,0,0,1,0,8.64h0a6.1,6.1,0,0,1-8.64,0h0a6.1,6.1,0,0,1,0-8.64h0A6.09,6.09,0,0,1,30.56,73.39Zm2.51,28.06a3.55,3.55,0,1,0,1,2.51,3.53,3.53,0,0,0-1-2.51Zm-2.51-3.61a6.09,6.09,0,0,1,4.32,1.79h0a6.1,6.1,0,0,1,0,8.64h0a6.1,6.1,0,0,1-8.64,0h0a6.1,6.1,0,0,1,0-8.64h0a6.09,6.09,0,0,1,4.32-1.79Zm27-94.2a3.55,3.55,0,1,0,1,2.51A3.54,3.54,0,0,0,57.52,3.65ZM55,0a6.09,6.09,0,0,1,4.32,1.79h0a6.1,6.1,0,0,1,0,8.64h0a6.1,6.1,0,0,1-8.64,0h0a6.1,6.1,0,0,1,0-8.64h0A6.09,6.09,0,0,1,55,0ZM57.52,28.1a3.55,3.55,0,1,0,1,2.51A3.54,3.54,0,0,0,57.52,28.1ZM55,24.49a6.09,6.09,0,0,1,4.32,1.79h0a6.1,6.1,0,0,1,0,8.64h0a6.1,6.1,0,0,1-8.64,0h0a6.1,6.1,0,0,1,0-8.64h0A6.09,6.09,0,0,1,55,24.49Zm2.51,28.06a3.55,3.55,0,1,0,1,2.51A3.53,3.53,0,0,0,57.52,52.55ZM55,48.94a6.09,6.09,0,0,1,4.32,1.79h0a6.1,6.1,0,0,1,0,8.64h0a6.1,6.1,0,0,1-8.64,0h0a6.1,6.1,0,0,1,0-8.64h0A6.09,6.09,0,0,1,55,48.94ZM57.52,77a3.55,3.55,0,1,0,1,2.51A3.54,3.54,0,0,0,57.52,77ZM55,73.39a6.09,6.09,0,0,1,4.32,1.79h0a6.1,6.1,0,0,1,0,8.64h0a6.1,6.1,0,0,1-8.64,0h0a6.1,6.1,0,0,1,0-8.64h0A6.09,6.09,0,0,1,55,73.39Zm2.51,28.06a3.55,3.55,0,1,0,1,2.51A3.53,3.53,0,0,0,57.52,101.45ZM55,97.84a6.09,6.09,0,0,1,4.32,1.79h0a6.1,6.1,0,0,1,0,8.64h0a6.1,6.1,0,0,1-8.64,0h0a6.1,6.1,0,0,1,0-8.64h0A6.09,6.09,0,0,1,55,97.84ZM82,3.65a3.55,3.55,0,1,0,1,2.51A3.53,3.53,0,0,0,82,3.65ZM79.47,0a6.09,6.09,0,0,1,4.32,1.79h0a6.1,6.1,0,0,1,0,8.64h0a6.1,6.1,0,0,1-8.64,0h0a6.1,6.1,0,0,1,0-8.64h0A6.09,6.09,0,0,1,79.47,0ZM82,28.1a3.55,3.55,0,1,0,1,2.51A3.53,3.53,0,0,0,82,28.1Zm-2.51-3.61a6.09,6.09,0,0,1,4.32,1.79h0a6.1,6.1,0,0,1,0,8.64h0a6.1,6.1,0,0,1-8.64,0h0a6.1,6.1,0,0,1,0-8.64h0A6.09,6.09,0,0,1,79.47,24.49ZM82,52.55a3.55,3.55,0,1,0,1,2.51A3.53,3.53,0,0,0,82,52.55Zm-2.51-3.61a6.09,6.09,0,0,1,4.32,1.79h0a6.1,6.1,0,0,1,0,8.64h0a6.1,6.1,0,0,1-8.64,0h0a6.1,6.1,0,0,1,0-8.64h0A6.09,6.09,0,0,1,79.47,48.94ZM82,77a3.55,3.55,0,1,0,1,2.51A3.53,3.53,0,0,0,82,77Zm-2.51-3.61a6.09,6.09,0,0,1,4.32,1.79h0a6.1,6.1,0,0,1,0,8.64h0a6.1,6.1,0,0,1-8.64,0h0a6.1,6.1,0,0,1,0-8.64h0A6.09,6.09,0,0,1,79.47,73.39ZM82,101.45A3.55,3.55,0,1,0,83,104a3.53,3.53,0,0,0-1-2.51Zm-2.51-3.61a6.09,6.09,0,0,1,4.32,1.79h0a6.1,6.1,0,0,1,0,8.64h0a6.1,6.1,0,0,1-8.64,0h0a6.1,6.1,0,0,1,0-8.64h0a6.09,6.09,0,0,1,4.32-1.79Zm27-94.2a3.55,3.55,0,1,0,1,2.51A3.54,3.54,0,0,0,106.42,3.65ZM103.92,0a6.09,6.09,0,0,1,4.32,1.79h0a6.1,6.1,0,0,1,0,8.64h0a6.1,6.1,0,0,1-8.64,0h0a6.1,6.1,0,0,1,0-8.64h0A6.09,6.09,0,0,1,103.92,0Zm2.51,28.06a3.55,3.55,0,1,0,1,2.51A3.54,3.54,0,0,0,106.42,28.1Zm-2.51-3.61a6.09,6.09,0,0,1,4.32,1.79h0a6.1,6.1,0,0,1,0,8.64h0a6.1,6.1,0,0,1-8.64,0h0a6.1,6.1,0,0,1,0-8.64h0A6.09,6.09,0,0,1,103.92,24.49Zm2.51,28.06a3.55,3.55,0,1,0,1,2.51A3.53,3.53,0,0,0,106.42,52.55Zm-2.51-3.61a6.09,6.09,0,0,1,4.32,1.79h0a6.1,6.1,0,0,1,0,8.64h0a6.1,6.1,0,0,1-8.64,0h0a6.1,6.1,0,0,1,0-8.64h0A6.09,6.09,0,0,1,103.92,48.94ZM106.42,77a3.55,3.55,0,1,0,1,2.51A3.53,3.53,0,0,0,106.42,77Zm-2.51-3.61a6.09,6.09,0,0,1,4.32,1.79h0a6.1,6.1,0,0,1,0,8.64h0a6.1,6.1,0,0,1-8.64,0h0a6.1,6.1,0,0,1,0-8.64h0A6.09,6.09,0,0,1,103.92,73.39Zm2.51,28.06a3.55,3.55,0,1,0,1,2.51A3.53,3.53,0,0,0,106.42,101.45Zm-2.51-3.61a6.09,6.09,0,0,1,4.32,1.79h0a6.1,6.1,0,0,1,0,8.64h0a6.1,6.1,0,0,1-8.64,0h0a6.1,6.1,0,0,1,0-8.64h0A6.09,6.09,0,0,1,103.92,97.84Zm27-94.2a3.55,3.55,0,1,0,1,2.51A3.54,3.54,0,0,0,130.88,3.65ZM128.37,0a6.09,6.09,0,0,1,4.32,1.79h0a6.1,6.1,0,0,1,0,8.64h0a6.1,6.1,0,0,1-8.64,0h0a6.1,6.1,0,0,1,0-8.64h0A6.09,6.09,0,0,1,128.37,0Zm2.51,28.06a3.55,3.55,0,1,0,1,2.51A3.54,3.54,0,0,0,130.88,28.1Zm-2.51-3.61a6.09,6.09,0,0,1,4.32,1.79h0a6.1,6.1,0,0,1,0,8.64h0a6.1,6.1,0,0,1-8.64,0h0a6.1,6.1,0,0,1,0-8.64h0A6.09,6.09,0,0,1,128.37,24.49Zm2.51,28.06a3.55,3.55,0,1,0,1,2.51A3.53,3.53,0,0,0,130.88,52.55Zm-2.51-3.61a6.09,6.09,0,0,1,4.32,1.79h0a6.1,6.1,0,0,1,0,8.64h0a6.1,6.1,0,0,1-8.64,0h0a6.1,6.1,0,0,1,0-8.64h0A6.09,6.09,0,0,1,128.37,48.94ZM130.88,77a3.55,3.55,0,1,0,1,2.51A3.53,3.53,0,0,0,130.88,77Zm-2.51-3.61a6.09,6.09,0,0,1,4.32,1.79h0a6.1,6.1,0,0,1,0,8.64h0a6.1,6.1,0,0,1-8.64,0h0a6.1,6.1,0,0,1,0-8.64h0A6.09,6.09,0,0,1,128.37,73.39Zm2.51,28.06a3.55,3.55,0,1,0,1,2.51,3.53,3.53,0,0,0-1-2.51Zm-2.51-3.61a6.09,6.09,0,0,1,4.32,1.79h0a6.1,6.1,0,0,1,0,8.64h0a6.1,6.1,0,0,1-8.64,0h0a6.1,6.1,0,0,1,0-8.64h0a6.09,6.09,0,0,1,4.32-1.79ZM6.11,0a6.09,6.09,0,0,1,4.32,1.79h0a6.1,6.1,0,0,1,0,8.64h0a6.1,6.1,0,0,1-8.64,0h0a6.1,6.1,0,0,1,0-8.64h0A6.09,6.09,0,0,1,6.11,0Z" transform="translate(0 -0.04)"/></g></svg>