<svg xmlns="http://www.w3.org/2000/svg" viewBox="0 0 212.82 193.5"><defs><style>.a{fill:#fff;}</style></defs><title>fruits decor 1</title><path class="a" d="M200.47,161.35q-1.24,1.66-2.61,3.27a90.8,90.8,0,0,1-28,21.74c-9,4.64-20.72,9.51-31.54,5.88-5.44-1.82-9.83-5.59-13.43-11.5-3.15-5.2-5.19-11.22-6.85-16.47l-.17-.54c-2.93-9.27-6.26-19.77-14.19-26.07a19,19,0,0,0-13-4.21c-4.3.26-8.83,2-13.46,5.22-4.79,3.31-8.81,7.67-12.7,11.88-4.11,4.45-8.35,9-13.55,12.5a25.8,25.8,0,0,1-17.22,4.58,30.27,30.27,0,0,1-14-5.69,43,43,0,0,1-11-11.74,53.91,53.91,0,0,1-6.55-14.71A57.37,57.37,0,0,1,3,101.73,56.89,56.89,0,0,1,24,74l.07-.05A31.56,31.56,0,0,1,36.22,68.7c10.28-2.06,18.49-6.09,24.4-12a53.67,53.67,0,0,0,5.76-7.2c1.57-2.23,3.23-4.74,5.22-7.89.95-1.5,1.9-3,2.82-4.52,2.52-4.06,5.13-8.27,7.93-12.26A78,78,0,0,1,95,10.46a43.49,43.49,0,0,1,16.73-9.33A32,32,0,0,1,126.84.71a35.64,35.64,0,0,1,23.33,17.17,33.27,33.27,0,0,1,4,14.9c.14,2.66.09,5.41.05,8.06-.12,7.87-.25,16,4.29,22.89,4.94,7.47,13.25,11.63,21.29,15.66l3.36,1.7a73.62,73.62,0,0,1,14.08,8.79,41.17,41.17,0,0,1,9.87,12.38,52.55,52.55,0,0,1,5.14,31.51A59.92,59.92,0,0,1,200.47,161.35Z"/></svg>